<svg width="15" height="18" viewBox="0 0 15 18" fill="none" xmlns="http://www.w3.org/2000/svg">
<path d="M13.8664 0H1.96196C1.14066 0 0.475586 0.660771 0.475586 1.47676V16.2576C0.475586 17.0736 1.14066 17.7344 1.96196 17.7344H13.8664C14.0315 17.7344 14.1654 17.6013 14.1654 17.4373V0.297125C14.161 0.133041 14.0271 0 13.8664 0ZM10.2955 0.589816H12.0809V3.3615L11.3221 2.98456C11.2373 2.94464 11.1391 2.94464 11.0543 2.98456L10.2955 3.3615V0.589816ZM1.06924 1.47676C1.06924 0.988939 1.47097 0.589816 1.96196 0.589816H2.26102V14.191H1.96196C1.64058 14.191 1.32367 14.2975 1.06924 14.4926V1.47676ZM13.5673 15.6678H2.26102V16.2576H13.5673V17.1446H1.96196C1.47097 17.1446 1.06924 16.7454 1.06924 16.2576V15.6678C1.06924 15.18 1.47097 14.7809 1.96196 14.7809H13.5673V15.6678ZM13.5673 14.191H2.85468V0.589816H9.69737V3.84045C9.69737 4.00454 9.83128 4.13758 9.99643 4.13758C10.0411 4.13758 10.0902 4.12871 10.1303 4.10653L11.1882 3.58324L12.2461 4.11097C12.3934 4.18192 12.5719 4.12427 12.6433 3.97793C12.6657 3.93802 12.6746 3.88923 12.6746 3.84489V0.589816H13.5673V14.191Z" fill="white" fill-opacity="0.5" />
</svg>
