<svg width="17" height="18" viewBox="0 0 17 18" fill="none" xmlns="http://www.w3.org/2000/svg">
<path d="M13.116 5.625V4.5C13.116 2.01867 11.0519 0 8.51476 0C5.97763 0 3.91355 2.01867 3.91355 4.5V5.625H0.462646V15.1875C0.462646 16.7408 1.75016 18 3.3384 18H13.6911C15.2794 18 16.5669 16.7408 16.5669 15.1875V5.625H13.116ZM6.21416 4.5C6.21416 3.25934 7.2462 2.25 8.51476 2.25C9.78333 2.25 10.8154 3.25934 10.8154 4.5V5.625H6.21416V4.5ZM11.9657 8.71875C11.4892 8.71875 11.1029 8.341 11.1029 7.875C11.1029 7.409 11.4892 7.03125 11.9657 7.03125C12.4421 7.03125 12.8284 7.409 12.8284 7.875C12.8284 8.341 12.4421 8.71875 11.9657 8.71875ZM5.06386 8.71875C4.58738 8.71875 4.20113 8.341 4.20113 7.875C4.20113 7.409 4.58738 7.03125 5.06386 7.03125C5.54033 7.03125 5.92658 7.409 5.92658 7.875C5.92658 8.341 5.54033 8.71875 5.06386 8.71875Z" fill="white" fill-opacity="0.5"/>
</svg>
