<svg width="14" height="16" viewBox="0 0 14 16" fill="none" xmlns="http://www.w3.org/2000/svg">
<path d="M14 11.25V0.75C14 0.334 13.6656 0 13.25 0H3C1.34375 0 0 1.344 0 3V13C0 14.656 1.34375 16 3 16H13.25C13.6656 16 14 15.666 14 15.25V14.75C14 14.516 13.8906 14.303 13.7219 14.166C13.5906 13.684 13.5906 12.312 13.7219 11.831C13.8906 11.697 14 11.484 14 11.25ZM4 4.188C4 4.084 4.08437 4 4.1875 4H10.8125C10.9156 4 11 4.084 11 4.188V4.812C11 4.916 10.9156 5 10.8125 5H4.1875C4.08437 5 4 4.916 4 4.812V4.188ZM4 6.188C4 6.084 4.08437 6 4.1875 6H10.8125C10.9156 6 11 6.084 11 6.188V6.812C11 6.916 10.9156 7 10.8125 7H4.1875C4.08437 7 4 6.916 4 6.812V6.188ZM11.9187 14H3C2.44688 14 2 13.553 2 13C2 12.45 2.45 12 3 12H11.9187C11.8594 12.534 11.8594 13.466 11.9187 14Z" fill="white" fill-opacity="0.5"/>
</svg>
